<svg width="74" height="51" viewBox="0 0 74 51" fill="none" xmlns="http://www.w3.org/2000/svg">
<path d="M9.22351 0C8.87405 0 8.5389 0.138821 8.2918 0.385927C8.04469 0.633032 7.90587 0.96818 7.90587 1.31764V5.27056H18.447V1.31764C18.447 0.96818 18.3082 0.633032 18.0611 0.385927C17.814 0.138821 17.4788 0 17.1293 0H9.22351ZM51.388 0C51.0385 0 50.7034 0.138821 50.4563 0.385927C50.2092 0.633032 50.0703 0.96818 50.0703 1.31764V5.27056H65.882V1.31764C65.882 0.96818 65.7432 0.633032 65.4961 0.385927C65.249 0.138821 64.9138 0 64.5644 0H51.388Z" fill="#D3D3D3"/>
<path d="M0 7.90533C0 6.50749 0.555289 5.1669 1.54371 4.17848C2.53213 3.19006 3.87272 2.63477 5.27056 2.63477H68.5173C69.9151 2.63477 71.2557 3.19006 72.2441 4.17848C73.2326 5.1669 73.7878 6.50749 73.7878 7.90533V14.4935L68.5173 28.9876L73.7878 43.4816V44.7992C73.7878 46.1971 73.2326 47.5377 72.2441 48.5261C71.2557 49.5145 69.9151 50.0698 68.5173 50.0698H5.27056C3.87272 50.0698 2.53213 49.5145 1.54371 48.5261C0.555289 47.5377 0 46.1971 0 44.7992V43.4816L3.95292 28.9876L0 14.4935V7.90533Z" fill="#E6E6E6"/>
<path d="M0 14.4934C0 14.144 0.138823 13.8088 0.385928 13.5617C0.633034 13.3146 0.96818 13.1758 1.31764 13.1758H72.4702C72.8197 13.1758 73.1548 13.3146 73.4019 13.5617C73.649 13.8088 73.7878 14.144 73.7878 14.4934V43.4815C73.7878 43.831 73.649 44.1661 73.4019 44.4132C73.1548 44.6603 72.8197 44.7991 72.4702 44.7991H1.31764C0.96818 44.7991 0.633034 44.6603 0.385928 44.4132C0.138823 44.1661 0 43.831 0 43.4815V14.4934Z" fill="#533566"/>
<path d="M52.7056 28.9875C52.7056 33.181 51.0397 37.2027 48.0745 40.168C45.1092 43.1333 41.0874 44.7991 36.8939 44.7991C32.7004 44.7991 28.6786 43.1333 25.7134 40.168C22.7481 37.2027 21.0822 33.181 21.0822 28.9875C21.0822 24.7939 22.7481 20.7722 25.7134 17.8069C28.6786 14.8416 32.7004 13.1758 36.8939 13.1758C41.0874 13.1758 45.1092 14.8416 48.0745 17.8069C51.0397 20.7722 52.7056 24.7939 52.7056 28.9875Z" fill="#321B41"/>
<path d="M36.8938 42.1644C40.3884 42.1644 43.7399 40.7762 46.2109 38.3051C48.682 35.834 50.0702 32.4826 50.0702 28.988C50.0702 25.4934 48.682 22.1419 46.2109 19.6709C43.7399 17.1998 40.3884 15.8116 36.8938 15.8116C33.3992 15.8116 30.0477 17.1998 27.5767 19.6709C25.1056 22.1419 23.7174 25.4934 23.7174 28.988C23.7174 32.4826 25.1056 35.834 27.5767 38.3051C30.0477 40.7762 33.3992 42.1644 36.8938 42.1644ZM36.8938 47.4349C34.4713 47.4349 32.0725 46.9578 29.8345 46.0307C27.5964 45.1037 25.5628 43.7449 23.8498 42.0319C22.1369 40.319 20.7781 38.2854 19.851 36.0473C18.924 33.8092 18.4468 31.4105 18.4468 28.988C18.4468 26.5655 18.924 24.1667 19.851 21.9286C20.7781 19.6905 22.1369 17.657 23.8498 15.944C25.5628 14.231 27.5964 12.8723 29.8345 11.9452C32.0725 11.0182 34.4713 10.541 36.8938 10.541C41.7862 10.541 46.4783 12.4845 49.9378 15.944C53.3972 19.4035 55.3408 24.0955 55.3408 28.988C55.3408 33.8804 53.3972 38.5725 49.9378 42.0319C46.4783 45.4914 41.7862 47.4349 36.8938 47.4349Z" fill="#9B9B9B"/>
<path d="M43.482 28.9886C43.482 30.7359 42.7879 32.4116 41.5524 33.6472C40.3169 34.8827 38.6411 35.5768 36.8938 35.5768C35.1465 35.5768 33.4708 34.8827 32.2353 33.6472C30.9997 32.4116 30.3056 30.7359 30.3056 28.9886C30.3056 27.2413 30.9997 25.5656 32.2353 24.33C33.4708 23.0945 35.1465 22.4004 36.8938 22.4004C38.6411 22.4004 40.3169 23.0945 41.5524 24.33C42.7879 25.5656 43.482 27.2413 43.482 28.9886Z" fill="#433B6B"/>
<path d="M45.0186 23.3878C46.1096 25.2773 45.9725 27.4013 44.7129 28.1287C43.4506 28.856 41.5453 27.9126 40.4543 26.0231C39.3606 24.131 39.4977 22.0096 40.76 21.2796C42.0196 20.5549 43.9249 21.4957 45.0186 23.3878Z" fill="white"/>
</svg>
